<!DOCTYPE svg PUBLIC "-//W3C//DTD SVG 1.1//EN" "http://www.w3.org/Graphics/SVG/1.1/DTD/svg11.dtd">
<!-- Uploaded to: SVG Repo, www.svgrepo.com, Transformed by: SVG Repo Mixer Tools -->
<svg height="800px" width="800px" version="1.1" id="Capa_1" xmlns="http://www.w3.org/2000/svg" xmlns:xlink="http://www.w3.org/1999/xlink" viewBox="0 0 54.00 54.00" xml:space="preserve" fill="#000000" stroke="#000000" stroke-width="0.00054" transform="rotate(90)">
<g id="SVGRepo_bgCarrier" stroke-width="0"/>
<g id="SVGRepo_tracerCarrier" stroke-linecap="round" stroke-linejoin="round" stroke="#CCCCCC" stroke-width="3.024"/>
<g id="SVGRepo_iconCarrier"> <g> <g> <path style="fill:#6b4226;" d="M27,53L27,53C12.641,53,1,41.359,1,27v0C1,12.641,12.641,1,27,1h0c14.359,0,26,11.641,26,26v0 C53,41.359,41.359,53,27,53z"/> <path style="fill:#6b4226;" d="M27,54C12.112,54,0,41.888,0,27S12.112,0,27,0s27,12.112,27,27S41.888,54,27,54z M27,2 C13.215,2,2,13.215,2,27s11.215,25,25,25s25-11.215,25-25S40.785,2,27,2z"/> </g> <path style="fill:#FFFFFF;" d="M39,28H13c-0.552,0-1-0.447-1-1s0.448-1,1-1h26c0.552,0,1,0.447,1,1S39.552,28,39,28z"/> <polygon style="fill:#FFFFFF;" points="30.707,37.707 29.293,36.293 38.586,27 29.293,17.707 30.707,16.293 41.414,27 "/> </g> </g>
</svg>