<?xml version="1.0" encoding="iso-8859-1"?>
<!-- Uploaded to: SVG Repo, www.svgrepo.com, Generator: SVG Repo Mixer Tools -->
<!DOCTYPE svg PUBLIC "-//W3C//DTD SVG 1.1//EN" "http://www.w3.org/Graphics/SVG/1.1/DTD/svg11.dtd">
<svg fill="#000000" version="1.1" id="Capa_1" xmlns="http://www.w3.org/2000/svg" xmlns:xlink="http://www.w3.org/1999/xlink" 
	 width="800px" height="800px" viewBox="0 0 125 125" xml:space="preserve">
<g>
	<path d="M119,56.7H84.7C82.1,46.8,73.1,39.5,62.4,39.5s-19.7,7.3-22.3,17.2H6c-3.3,0-6,2.7-6,6s2.7,6,6,6h34.2
		c2.7,9.7,11.6,16.8,22.1,16.8s19.5-7.1,22.2-16.8H119c3.3,0,6-2.7,6-6S122.3,56.7,119,56.7z M68.8,68.7c-1.6,1.7-3.899,2.8-6.5,2.8
		c-2.6,0-4.8-1.1-6.5-2.8c-1.6-1.601-2.5-3.8-2.5-6.2c0-2.2,0.8-4.2,2.1-5.8c1.7-2,4.1-3.2,6.9-3.2s5.3,1.3,6.9,3.2
		c1.3,1.6,2.1,3.6,2.1,5.8C71.4,64.9,70.4,67.1,68.8,68.7z"/>
</g>
</svg>