<?xml version="1.0" encoding="iso-8859-1"?>
<!-- Uploaded to: SVG Repo, www.svgrepo.com, Generator: SVG Repo Mixer Tools -->
<svg fill="#000000" height="800px" width="800px" version="1.1" id="Layer_1" xmlns="http://www.w3.org/2000/svg" xmlns:xlink="http://www.w3.org/1999/xlink" 
	 viewBox="0 0 512 512" xml:space="preserve">
<g>
	<g>
		<path d="M175.333,238.686c-6.57-7.698-18.429-7.698-24.999,0c-18.922,22.169-49.59,73.117-19.337,73.117h63.672
			C224.922,311.804,194.253,260.855,175.333,238.686z"/>
	</g>
</g>
<g>
	<g>
		<path d="M361.665,238.686c-6.568-7.698-18.429-7.698-24.999,0c-18.922,22.169-49.59,73.117-19.337,73.117h63.672
			C411.255,311.804,380.587,260.855,361.665,238.686z"/>
	</g>
</g>
<g>
	<g>
		<path d="M264.508,297.505c-4.472-5.24-12.544-5.24-17.017,0c-12.88,15.09-33.756,49.769-13.162,49.769h43.341
			C298.263,347.275,277.389,312.595,264.508,297.505z"/>
	</g>
</g>
<g>
	<g>
		<path d="M317.649,358.734h-25.882V370.2c0,5.803-4.704,10.508-10.508,10.508c-5.805,0-10.508-4.705-10.508-10.508v-11.465h-29.502
			V370.2c0,5.803-4.704,10.508-10.508,10.508c-5.805,0-10.508-4.705-10.508-10.508v-11.465H194.35
			c-5.805,0-10.508,4.705-10.508,10.508c0,39.788,32.37,72.158,72.158,72.158s72.158-32.37,72.158-72.158
			C328.157,363.439,323.453,358.734,317.649,358.734z"/>
	</g>
</g>
<g>
	<g>
		<path d="M295.147,77.548V39.146C295.147,17.56,277.585,0,255.999,0c-21.586,0-39.147,17.56-39.147,39.146v38.402
			C96.462,96.519,6.805,200.698,6.805,323.653v36.718C6.805,443.98,74.825,512,158.432,512h195.134
			c83.608,0,151.629-68.02,151.629-151.629v-36.718C505.194,200.698,415.536,96.519,295.147,77.548z M237.869,86.683V39.146
			c0-9.997,8.133-18.129,18.13-18.129s18.13,8.133,18.13,18.129v47.537v16.081c0,9.997-8.133,18.129-18.13,18.129
			s-18.13-8.133-18.13-18.129V86.683z M484.177,360.371c0,72.019-58.592,130.612-130.612,130.612H158.431
			c-72.019,0-130.611-58.592-130.611-130.612v-36.718c0-111.469,80.462-206.096,189.031-224.821v3.932
			c0,21.586,17.562,39.146,39.147,39.146c21.586,0,39.147-17.56,39.147-39.146v-3.932
			c108.569,18.725,189.032,113.352,189.032,224.821V360.371z"/>
	</g>
</g>
</svg>